<svg width="100%" height="100%" viewBox="0 0 16 16" version="1.1" xmlns="http://www.w3.org/2000/svg" style="fill-rule:evenodd;clip-rule:evenodd;stroke-linejoin:round;stroke-miterlimit:2;">
    <g transform="matrix(1,0,0,1,-329.337,-28)">
        <g transform="matrix(1.04399,0,0,1.04399,-14.4863,-1.23162)">
            <path d="M336.004,28.617C336.192,28.239 336.578,28 337,28C337.422,28 337.808,28.239 337.996,28.617L339.77,32.187L343.713,32.771C344.131,32.833 344.478,33.126 344.608,33.528C344.739,33.93 344.631,34.371 344.329,34.666L341.482,37.456L342.145,41.387C342.216,41.804 342.044,42.224 341.702,42.472C341.361,42.72 340.908,42.754 340.533,42.558L337,40.713L333.467,42.558C333.092,42.754 332.639,42.72 332.298,42.472C331.956,42.224 331.784,41.804 331.855,41.387L332.518,37.456L329.671,34.666C329.369,34.371 329.261,33.93 329.392,33.528C329.522,33.126 329.869,32.833 330.287,32.771L334.23,32.187L336.004,28.617Z" style="fill:rgb(255,138,0);"/>
        </g>
    </g>
</svg>
