<svg width="20" height="20" viewBox="0 0 20 20" fill="currentColor" xmlns="http://www.w3.org/2000/svg">
<path fill-rule="evenodd" clip-rule="evenodd" d="M6.26638 16.2656C5.2118 16.3202 4.98835 17.3539 4.94494 17.6577L4.93529 17.7413C4.87099 18.2381 4.64754 18.7188 4.26654 19.0998C3.34539 20.0193 1.85194 20.0193 0.932401 19.0998C0.0128606 18.1802 0.0128606 16.6852 0.932401 15.7656C1.3134 15.3846 1.79407 15.1612 2.29081 15.0969L2.37441 15.0872C2.67824 15.0438 3.71192 14.8204 3.76658 13.7658L0 9.9992L3.7505 6.2503C3.69584 5.19572 2.66217 4.97227 2.35833 4.92886L2.27313 4.91922C1.77799 4.85492 1.29732 4.63146 0.916325 4.25046C-0.00321523 3.32931 -0.00321523 1.83587 0.916325 0.916325C1.83587 -0.00321523 3.32931 -0.00321523 4.25046 0.916325C4.63146 1.29732 4.85492 1.77799 4.91922 2.27313L4.92886 2.35833C4.97227 2.66217 5.19572 3.69584 6.2503 3.7505L9.9992 0L13.7497 3.7505C14.8043 3.69584 15.0277 2.66217 15.0711 2.35833L15.0808 2.27313C15.1451 1.77799 15.3685 1.29732 15.7495 0.916325C16.6691 -0.00321523 18.1641 -0.00321523 19.0837 0.916325C20.0032 1.83587 20.0032 3.32931 19.0837 4.25046C18.7027 4.63146 18.222 4.85492 17.7253 4.91922L17.6417 4.92886C17.3378 4.97227 16.3042 5.19572 16.2495 6.2503L20 9.9992L9.9992 20L6.26638 16.2656ZM13.7497 16.2495C13.695 15.1949 12.663 14.9715 12.3575 14.9297L12.2739 14.92C11.7772 14.8541 11.2981 14.6307 10.9171 14.2497C9.99598 13.3301 9.99598 11.8367 10.9171 10.9171C11.8367 9.99598 13.3301 9.99598 14.2497 10.9171C14.6307 11.2981 14.8541 11.7772 14.92 12.2739L14.9297 12.3575C14.9715 12.663 15.1949 13.695 16.2495 13.7497L13.7497 16.2495Z" fill="#D52ECE"/>
</svg>
