<svg width="21" height="20" viewBox="0 0 21 20" fill="currentColor" xmlns="http://www.w3.org/2000/svg">
<path fill-rule="evenodd" clip-rule="evenodd" d="M9.82575 0.393171C9.96345 0.150005 10.2214 0 10.5 0C10.7786 0 11.0365 0.150005 11.1727 0.393171L14.24 5.83914L20.3794 7.06602C20.6533 7.11971 20.8764 7.31866 20.9619 7.58393C21.0489 7.84763 20.9841 8.13816 20.7957 8.34343L16.5508 12.9367L17.2789 19.1406C17.3121 19.417 17.1918 19.6885 16.9655 19.8528C16.7407 20.017 16.4432 20.0454 16.1899 19.9301L10.5 17.3216L4.81006 19.9301C4.55682 20.0454 4.25926 20.017 4.03452 19.8528C3.80818 19.6885 3.6879 19.417 3.72113 19.1406L4.44919 12.9367L0.20429 8.34343C0.0159444 8.13816 -0.0489478 7.84763 0.0381027 7.58393C0.123571 7.31866 0.346737 7.11971 0.62055 7.06602L6.75999 5.83914L9.82575 0.393171ZM11.4512 12.7567C11.3309 13.0852 11.0255 13.4215 10.5 13.4215C9.97453 13.4215 9.67539 13.1025 9.54877 12.7567C9.4 12.3478 8.94575 12.1362 8.53424 12.2846C8.12431 12.433 7.91222 12.8878 8.061 13.2968C8.38388 14.181 9.15467 15.0005 10.5 15.0005C11.8453 15.0005 12.6304 14.1399 12.939 13.2968C13.0878 12.8878 12.8757 12.433 12.4658 12.2846C12.0542 12.1362 11.6 12.3478 11.4512 12.7567ZM13.6639 7.895C14.5376 7.895 15.2466 8.60239 15.2466 9.474C15.2466 10.3456 14.5376 11.053 13.6639 11.053C12.7902 11.053 12.0812 10.3456 12.0812 9.474C12.0812 8.60239 12.7902 7.895 13.6639 7.895ZM7.33294 7.895C8.20661 7.895 8.91568 8.60239 8.91568 9.474C8.91568 10.3456 8.20661 11.053 7.33294 11.053C6.45927 11.053 5.7502 10.3456 5.7502 9.474C5.7502 8.60239 6.45927 7.895 7.33294 7.895Z" fill="#FF744B"/>
</svg>
