<svg width="19" height="20" viewBox="0 0 19 20" fill="currentColor" xmlns="http://www.w3.org/2000/svg">
<path fill-rule="evenodd" clip-rule="evenodd" d="M14.63 12.5576C12.5762 12.5576 10.9088 14.225 10.9088 16.2788C10.9088 18.3326 12.5762 20 14.63 20C16.6838 20 18.3512 18.3326 18.3512 16.2788C18.3512 14.225 16.6838 12.5576 14.63 12.5576ZM13.1043 5.95248H10.4337L14.3409 0L18.2482 5.95248H15.2955C14.9792 7.68713 14.3295 8.97095 13.5237 9.94132C11.8119 12.0052 9.33877 12.6578 7.55403 13.0414C6.07986 13.3591 2.14684 14.1735 2.14684 18.5172C2.14684 19.1083 1.66595 19.5907 1.07342 19.5907C0.480893 19.5907 0 19.1083 0 18.5172C0 12.6578 5.11235 11.3725 7.10176 10.9432C8.51438 10.6383 10.5152 10.2047 11.872 8.5702C12.4188 7.91041 12.851 7.05739 13.1043 5.95248ZM14.63 14.2751C15.7364 14.2751 16.6337 15.1725 16.6337 16.2788C16.6337 17.3837 15.7364 18.2825 14.63 18.2825C13.5237 18.2825 12.6263 17.3837 12.6263 16.2788C12.6263 15.1725 13.5237 14.2751 14.63 14.2751ZM4.18062 3.91871L1.66738 1.51281C1.32532 1.18363 0.781451 1.19651 0.4537 1.53857C0.125948 1.88064 0.137398 2.4245 0.479462 2.75225L2.93975 5.10806L0.479462 7.46386C0.137398 7.79161 0.125948 8.33548 0.4537 8.67754C0.781451 9.02104 1.32532 9.03249 1.66738 8.70474L4.18062 6.29741L6.69386 8.70474C7.03736 9.03249 7.58122 9.02104 7.90897 8.67754C8.23673 8.33548 8.22384 7.79161 7.88178 7.46386L5.42293 5.10806L7.88178 2.75225C8.22384 2.4245 8.23673 1.88064 7.90897 1.53857C7.58122 1.19651 7.03736 1.18363 6.69386 1.51281L4.18062 3.91871Z" fill="#1ACCF3"/>
</svg>
