<svg width="17" height="20" viewBox="0 0 17 20" fill="currentColor" xmlns="http://www.w3.org/2000/svg">
<path fill-rule="evenodd" clip-rule="evenodd" d="M7.36667 16.8066V18.8746C7.36667 19.495 7.87383 20 8.5 20C9.12617 20 9.63333 19.495 9.63333 18.8746V16.8066C13.7898 16.2552 17 12.7172 17 8.4406C17 3.78279 13.1906 0 8.5 0C3.80942 0 0 3.78279 0 8.4406C0 12.7172 3.21017 16.2552 7.36667 16.8066ZM8.5 1.40677C12.41 1.40677 15.5833 4.55792 15.5833 8.4406C15.5833 12.3233 12.41 15.4744 8.5 15.4744C4.59 15.4744 1.41667 12.3233 1.41667 8.4406C1.41667 4.55792 4.59 1.40677 8.5 1.40677ZM8.5 3.09489C5.52925 3.09489 3.11667 5.49061 3.11667 8.4406C3.11667 11.3906 5.52925 13.7863 8.5 13.7863C11.4707 13.7863 13.8833 11.3906 13.8833 8.4406C13.8833 5.49061 11.4707 3.09489 8.5 3.09489ZM8.5 4.50165C10.6887 4.50165 12.4667 6.26715 12.4667 8.4406C12.4667 10.6141 10.6887 12.3795 8.5 12.3795C6.31125 12.3795 4.53333 10.6141 4.53333 8.4406C4.53333 6.26715 6.31125 4.50165 8.5 4.50165ZM8.5 6.11943C9.79058 6.11943 10.8375 7.15903 10.8375 8.4406C10.8375 9.72216 9.79058 10.7618 8.5 10.7618C7.20942 10.7618 6.1625 9.72216 6.1625 8.4406C6.1625 7.15903 7.20942 6.11943 8.5 6.11943Z" fill="#1AE3B3"/>
</svg>
