<svg width="20" height="20" viewBox="0 0 20 20" fill="currentColor" xmlns="http://www.w3.org/2000/svg">
<path fill-rule="evenodd" clip-rule="evenodd" d="M6.25006 7.03325H7.62611L6.78762 8.47231C6.72975 8.57262 6.67831 8.67422 6.63458 8.77839C6.44554 9.16291 6.36581 9.52171 6.23335 10.274L5.57876 13.8466H1.55223C0.695738 13.8466 0 14.5359 0 15.3847C0 16.2335 0.695738 16.9228 1.55223 16.9228H6.87378C7.62354 16.9228 8.26655 16.3916 8.40029 15.6599L8.88512 13.0171L13.1213 19.3148C13.5958 20.0221 14.5603 20.2124 15.2728 19.7417C15.9865 19.271 16.1794 18.3142 15.7036 17.6082L11.3671 11.1601C11.3716 11.1517 11.3765 11.1434 11.3813 11.135C11.3861 11.1267 11.3909 11.1183 11.3954 11.1099L12.7046 8.86455L14.1179 10.0657C14.3186 10.2354 14.5745 10.3293 14.8394 10.3293H18.3862C18.9984 10.3293 19.4948 9.83678 19.4948 9.23106C19.4948 8.62406 18.9984 8.13152 18.3862 8.13152H15.2484L12.4667 5.76781C12.2802 5.55433 12.0565 5.36914 11.7967 5.21996L11.7337 5.18395C11.3954 4.98976 11.0315 4.88045 10.6663 4.84702C10.6071 4.8393 10.5492 4.83544 10.4927 4.83544H5.76523C5.4553 4.83544 5.1608 4.96276 4.9499 5.1891L2.28912 8.04535C1.87502 8.4916 1.90203 9.18734 2.35213 9.59887C2.80224 10.0104 3.50441 9.9821 3.91851 9.53714L6.25006 7.03325ZM9.97824 2.41772C9.97824 1.08283 11.0701 0 12.4165 0C13.763 0 14.8561 1.08283 14.8561 2.41772C14.8561 3.75133 13.763 4.83544 12.4165 4.83544C11.0701 4.83544 9.97824 3.75133 9.97824 2.41772ZM8.03764 1.25263H0.321505C0.144034 1.25263 0 1.1086 0 0.931124C0 0.753654 0.144034 0.609619 0.321505 0.609619H8.03764C8.21511 0.609619 8.35914 0.753654 8.35914 0.931124C8.35914 1.1086 8.21511 1.25263 8.03764 1.25263ZM0.321505 3.26264H8.03764C8.21511 3.26264 8.35914 3.11861 8.35914 2.94113C8.35914 2.76366 8.21511 2.61963 8.03764 2.61963H0.321505C0.144034 2.61963 0 2.76366 0 2.94113C0 3.11861 0.144034 3.26264 0.321505 3.26264ZM2.89355 5.25092H0.321505C0.144034 5.25092 0 5.10689 0 4.92942C0 4.75194 0.144034 4.60791 0.321505 4.60791H2.89355C3.07102 4.60791 3.21505 4.75194 3.21505 4.92942C3.21505 5.10689 3.07102 5.25092 2.89355 5.25092Z" fill="#F2E03B"/>
</svg>
