<svg width="22" height="19" viewBox="0 0 22 19" fill="none" xmlns="http://www.w3.org/2000/svg">
<path fill-rule="evenodd" clip-rule="evenodd" d="M5.48655 6.30815L4.87792 6.77975C1.24022 9.70072 1.13292 10.0099 0.336465 10.6469C0.22782 10.7339 0.10026 10.6018 0.10026 10.6018C-0.607012 9.89423 2.62746 5.37359 3.55094 4.20444L3.09285 3.70662C2.85124 3.46528 2.82638 3.09799 3.03745 2.88692L3.80175 2.12262C4.01282 1.91155 4.3801 1.93641 4.62171 2.17803L5.04062 2.56342L6.80407 0.649165C7.16486 0.288367 7.75052 0.288367 8.11132 0.649165L9.41857 1.95641C9.77937 2.31694 9.77937 2.90287 9.41857 3.26339L7.45431 4.78442L11.4628 8.47266L14.2141 5.94113L11.7877 2.94449C11.6839 2.84071 11.6839 2.67206 11.7877 2.56828C11.7877 2.56828 12.5222 1.45157 12.9374 1.03645C13.3246 0.649165 14.2781 0.077835 14.2781 0.077835C14.3819 -0.025945 14.5503 -0.025945 14.6541 0.077835L17.8266 2.61693L18.1718 2.29938C18.4131 2.05803 18.7807 2.03317 18.9915 2.24397L19.756 3.00854C19.9668 3.21934 19.942 3.5869 19.7006 3.82824L19.3831 4.17336L21.9222 7.34595C22.0259 7.44973 22.0259 7.6181 21.9222 7.72188C21.9222 7.72188 21.3508 8.67536 20.9635 9.06264C20.5484 9.47776 19.4317 10.2123 19.4317 10.2123C19.3279 10.3161 19.1593 10.3161 19.0555 10.2123L16.0589 7.78593L6.48948 18.1858C6.00653 18.669 4.69847 18.1453 4.27659 17.7234C3.85472 17.3015 3.33095 15.9935 3.81418 15.5105L9.30506 10.458L5.48655 6.30815ZM14.4051 11.1799L12.1871 13.5903L16.304 18.0645C16.7869 18.5474 18.095 18.0237 18.5169 17.6018C18.9388 17.1799 19.4623 15.8721 18.9793 15.3889L14.4051 11.1799Z" fill="#68C20E"/>
</svg>
