<svg width="20" height="18" viewBox="0 0 20 18" fill="currentColor" xmlns="http://www.w3.org/2000/svg">
<path fill-rule="evenodd" clip-rule="evenodd" d="M0.578788 12.7811C1.54507 14.4545 3.45453 15.2308 5.17792 14.783C5.0342 14.271 4.95721 13.732 4.95721 13.1751C4.95721 9.90151 7.6148 7.24392 10.8883 7.24392C12.083 7.24392 13.1956 7.5981 14.1272 8.20635L18.2644 4.979L18.2593 4.96873C18.5159 5.41402 19.087 5.56672 19.5335 5.31008C19.9788 5.05214 20.1328 4.4811 19.8749 4.03582L17.814 0.467123C17.5574 0.0205555 16.9863 -0.13215 16.5397 0.124498C16.1036 0.37713 15.9469 0.930137 16.183 1.37236L16.1791 1.36539L6.98473 5.08808C5.63219 2.62554 2.91044 2.04679 2.91044 2.04679C2.53701 1.96723 2.17001 2.20592 2.09045 2.57934C2.01088 2.95276 2.24957 3.31977 2.62299 3.39933C2.62299 3.39933 4.62356 3.82537 5.69122 5.61292L2.2085 7.02192L2.21364 7.0309C2.13023 7.07197 2.0481 7.1156 1.96597 7.16179C0.0488089 8.26923 -0.573563 10.7869 0.578788 12.7811ZM16.1984 1.40004C16.1931 1.39086 16.188 1.38164 16.183 1.37236L16.1984 1.40004ZM15.4369 13.1755C15.4369 10.6655 13.3991 8.62769 10.8891 8.62769C8.3791 8.62769 6.34131 10.6655 6.34131 13.1755C6.34131 15.6855 8.3791 17.7246 10.8891 17.7246C13.3991 17.7246 15.4369 15.6855 15.4369 13.1755ZM13.0026 13.1755C13.0026 12.0103 12.0556 11.0633 10.8891 11.0633C9.72265 11.0633 8.77562 12.0103 8.77562 13.1755C8.77562 14.342 9.72265 15.289 10.8891 15.289C12.0556 15.289 13.0026 14.342 13.0026 13.1755Z" fill="#FF5252"/>
</svg>
