<svg width="20" height="20" viewBox="0 0 20 20" fill="currentColor" xmlns="http://www.w3.org/2000/svg">
<path fill-rule="evenodd" clip-rule="evenodd" d="M10 0C4.48143 0 0 4.48143 0 10C0 15.5186 4.48143 20 10 20C15.5186 20 20 15.5186 20 10C20 4.48143 15.5186 0 10 0ZM4.03714 3.84429L4.13714 4.49714C4.51714 6.50429 5.15571 8.42 6.01429 10.2129L6.58143 11.39C7.89 13.82 9.60143 16.0029 11.6257 17.8471L12.1286 18.3043C11.4486 18.4786 10.7343 18.5714 10 18.5714C8.68286 18.5714 7.43429 18.2743 6.31857 17.7414L6.34 17.4986L6.33143 15.6229C6.21571 14.9657 6.10143 14.3086 5.98714 13.6529L5.45857 12.4114L6.58143 11.39L6.02571 10.2343L5.96714 10.2771L4.85857 11.2857L4.43143 10.7229C4.15143 10.4843 3.87 10.2443 3.59 10.0057L1.67571 8.93L1.50714 8.83857C1.77143 6.89 2.69143 5.14857 4.03714 3.84429ZM8.57714 8.42714H8.57857L8.80286 9.06286L9.11857 9.54571C10.7614 12.1229 13.2314 12.7714 15.6486 13.2386L17.3614 13.5757L17.74 13.6857C16.86 15.5286 15.3414 17.0086 13.47 17.8386L13.3786 17.77L13.02 17.4429C10.8057 15.5543 8.96143 13.2443 7.59714 10.6457L7.58143 10.6143L8.54286 9.89429L9.11857 9.54571L8.80286 9.06286L8.57714 8.42714ZM5.10571 17.0357C4.33 16.4943 3.64714 15.8286 3.08714 15.0671L3.14571 14.9829L4.52571 13.37C4.97571 14.3643 5.11 15.3771 5.11 16.3429L5.10571 17.0357ZM1.43143 10.2043L2.75286 10.92C2.99286 11.1157 3.23143 11.31 3.47143 11.5057L3.96571 12.1471L2.44 13.8686L2.38714 13.9414C1.80429 12.8171 1.46286 11.5486 1.43143 10.2043ZM17.72 6.27429C18.2657 7.40143 18.5714 8.66429 18.5714 10C18.5714 10.8843 18.4371 11.7357 18.1886 12.5386L17.7829 12.4129L15.8829 12.0229C13.7929 11.6186 11.6186 11.1214 10.2186 8.89429L10.21 8.88143C12.3229 7.69 14.64 6.82429 17.1057 6.39429L17.72 6.27429ZM9.66 1.43571L8.95429 3.42429C8.36714 5.06714 7.94857 6.85 8.57429 8.41714L8.57714 8.42714L7.85143 8.86857L7.03429 9.48C6.18143 7.62429 5.57429 5.63429 5.24429 3.55143L5.15 2.93429C6.44286 2.04429 7.99 1.5 9.66 1.43571ZM10.9343 1.47857C13.4743 1.75429 15.6829 3.14143 17.0629 5.14429L16.4557 5.26286C14.0371 5.72714 11.76 6.59429 9.67286 7.76143C9.43143 7.15 9.45 6.48571 9.56429 5.82C9.73857 4.80714 10.1314 3.79 10.4871 2.85857L10.9343 1.47857Z" fill="#FF517B"/>
</svg>
